<?xml version="1.0" encoding="UTF-8"?>
<svg xmlns="http://www.w3.org/2000/svg" xmlns:xlink="http://www.w3.org/1999/xlink" width="128px"
    height="128px" viewBox="0 0 128 128" version="1.1">
    <g id="surface1">
        <path style=" stroke:none;fill-rule:nonzero;fill:rgb(100%,100%,100%);fill-opacity:1;"
            d="M 126.753906 116.960938 C 125.394531 115.332031 124.035156 113.976562 122.679688 112.890625 C 122.679688 112.617188 122.679688 112.074219 122.40625 111.800781 L 101.492188 36.566406 C 100.949219 34.394531 99.046875 32.765625 96.605469 32.765625 C 94.429688 32.492188 92.257812 34.125 91.445312 36.296875 L 83.566406 58.839844 L 70.257812 25.160156 C 69.445312 23.257812 67.269531 21.902344 65.097656 21.902344 C 62.925781 21.902344 61.023438 23.257812 60.210938 25.433594 L 41.46875 82.199219 L 37.121094 72.148438 C 36.035156 70.246094 34.40625 68.890625 32.234375 68.890625 C 30.0625 68.890625 28.160156 69.976562 27.34375 71.875 L 8.0625 111.800781 C 7.789062 112.074219 7.789062 112.617188 7.519531 112.886719 C 5.34375 114.519531 3.171875 116.417969 1.269531 118.863281 C -0.628906 121.308594 -0.359375 124.566406 1.816406 126.46875 C 2.902344 127.285156 4.257812 127.828125 5.34375 127.828125 C 6.703125 127.828125 8.332031 127.285156 9.417969 125.652344 C 15.125 119.136719 22.183594 116.691406 28.703125 119.136719 C 30.0625 119.679688 31.417969 120.492188 33.050781 121.308594 C 37.394531 123.753906 42.828125 126.742188 48.800781 125.109375 C 51.519531 124.566406 53.691406 123.210938 55.59375 121.851562 C 56.136719 121.578125 56.679688 121.035156 57.222656 120.765625 C 61.839844 118.050781 67 117.503906 71.886719 119.136719 C 72.976562 119.40625 74.0625 119.949219 75.148438 120.492188 C 78.679688 122.121094 82.753906 123.753906 87.371094 123.210938 C 90.628906 122.9375 93.617188 121.035156 96.0625 119.679688 C 96.875 119.136719 97.960938 118.59375 98.777344 118.050781 C 105.296875 114.789062 112.355469 116.960938 118.0625 123.753906 C 119.960938 126.195312 123.492188 126.46875 125.9375 124.566406 C 128.382812 122.667969 128.652344 119.136719 126.753906 116.960938 Z M 37.9375 112.074219 C 36.308594 110.988281 34.40625 110.171875 32.507812 109.359375 C 29.246094 108 25.714844 107.457031 22.183594 107.726562 L 31.960938 87.085938 L 44.457031 114.789062 C 42.554688 114.519531 40.382812 113.433594 37.9375 112.074219 Z M 66.726562 107.726562 C 62.652344 107.457031 58.308594 108.542969 54.234375 110.445312 L 47.988281 96.59375 L 65.640625 42.542969 L 78.136719 73.234375 C 78.136719 73.507812 78.40625 73.777344 78.40625 74.050781 Z M 94.703125 108.542969 C 93.617188 109.085938 92.257812 109.628906 91.171875 110.445312 C 89.269531 111.53125 87.640625 112.34375 86.28125 112.617188 C 84.652344 112.890625 82.210938 111.800781 79.765625 110.714844 C 78.949219 110.445312 78.136719 110.171875 77.320312 109.902344 L 95.789062 56.125 L 109.640625 106.640625 C 104.753906 105.554688 99.59375 106.371094 94.703125 108.542969 Z M 94.703125 108.542969 " />
        <path style=" stroke:none;fill-rule:nonzero;fill:rgb(100%,100%,100%);fill-opacity:1;"
            d="M 22.457031 0.171875 C 12.136719 0.171875 3.988281 8.59375 3.988281 18.640625 C 3.988281 28.691406 12.136719 36.839844 22.183594 36.839844 C 32.234375 36.839844 40.652344 28.691406 40.925781 18.640625 C 40.925781 8.320312 32.503906 0.171875 22.457031 0.171875 Z M 22.183594 26.519531 C 18.109375 26.519531 14.578125 22.988281 14.578125 18.640625 C 14.578125 14.296875 17.839844 10.765625 22.183594 10.765625 C 26.53125 10.765625 29.789062 14.296875 29.789062 18.640625 C 29.789062 22.988281 26.53125 26.519531 22.183594 26.519531 Z M 22.183594 26.519531 " />
    </g>
</svg>