<?xml version="1.0" encoding="UTF-8"?>
<svg xmlns="http://www.w3.org/2000/svg" xmlns:xlink="http://www.w3.org/1999/xlink" width="128px"
    height="128px" viewBox="0 0 128 128" version="1.1">
    <g id="surface1">
        <path
            style="fill:none;stroke-width:2;stroke-linecap:round;stroke-linejoin:round;stroke:rgb(100%,100%,100%);stroke-opacity:1;stroke-miterlimit:4;"
            d="M 12.999756 12.999756 L 15.999756 8.000244 M 8.000244 8.000244 L 8.009766 8.000244 M 12 6 L 12.010254 6 M 18 12 L 18.010254 12 M 6 12 L 6.010254 12 M 14.000244 15 C 14.000244 16.104492 13.104492 17.000244 12 17.000244 C 10.895508 17.000244 9.999756 16.104492 9.999756 15 C 9.999756 13.895508 10.895508 12.999756 12 12.999756 C 13.104492 12.999756 14.000244 13.895508 14.000244 15 Z M 21 12 C 21 16.970947 16.970947 21 12 21 C 7.029785 21 3 16.970947 3 12 C 3 7.029785 7.029785 3 12 3 C 16.970947 3 21 7.029785 21 12 Z M 21 12 "
            transform="matrix(5.333333,0,0,5.333333,0,0)" />
    </g>
</svg>