<?xml version="1.0" encoding="UTF-8"?>
<svg xmlns="http://www.w3.org/2000/svg" xmlns:xlink="http://www.w3.org/1999/xlink" width="100px"
    height="100px" viewBox="0 0 100 100" version="1.1">
    <g id="surface1">
        <path
            style="fill:none;stroke-width:2;stroke-linecap:round;stroke-linejoin:round;stroke:rgb(100%,100%,100%);stroke-opacity:1;stroke-miterlimit:4;"
            d="M 7.999687 15.999375 C 7.4475 15.999375 7.000312 16.4475 7.000312 16.999688 C 7.000312 17.551875 7.4475 18 7.999687 18 C 8.551875 18 9 17.551875 9 16.999688 C 9 16.4475 8.551875 15.999375 7.999687 15.999375 Z M 7.999687 15.999375 L 8.007188 12 M 7.999687 16.999688 L 8.007188 17.007188 M 19.999688 4.999687 C 19.999688 6.105 19.104375 7.000312 18 7.000312 C 16.895625 7.000312 16.000312 6.105 16.000312 4.999687 C 16.000312 3.895312 16.895625 3 18 3 C 19.104375 3 19.999688 3.895312 19.999688 4.999687 Z M 12 16.999688 C 12 19.209375 10.209375 21 7.999687 21 C 5.790938 21 4.000312 19.209375 4.000312 16.999688 C 4.000312 15.985312 4.377187 15.059062 4.999687 14.354062 L 4.999687 6 C 4.999687 4.343437 6.343125 3 7.999687 3 C 9.657187 3 10.999688 4.343437 10.999688 6 L 10.999688 14.354062 C 11.622187 15.059062 12 15.985312 12 16.999688 Z M 12 16.999688 "
            transform="matrix(4.166667,0,0,4.166667,0,0)" />
    </g>
</svg>